<?xml version="1.0" standalone="no"?>
<svg xmlns:xlink="http://www.w3.org/1999/xlink" id="wave" style="transform:rotate(0deg); transition: 0.3s" viewBox="0 0 1440 250" version="1.1" xmlns="http://www.w3.org/2000/svg"><defs><linearGradient id="sw-gradient-0" x1="0" x2="0" y1="1" y2="0"><stop stop-color="rgba(229.045, 221.262, 218.763, 1)" offset="0%"/><stop stop-color="rgba(202.861, 222.292, 244.982, 1)" offset="100%"/></linearGradient></defs><path style="transform:translate(0, 0px); opacity:1" fill="url(#sw-gradient-0)" d="M0,175L40,154.2C80,133,160,92,240,79.2C320,67,400,83,480,83.3C560,83,640,67,720,66.7C800,67,880,83,960,104.2C1040,125,1120,150,1200,150C1280,150,1360,125,1440,95.8C1520,67,1600,33,1680,50C1760,67,1840,133,1920,162.5C2000,192,2080,183,2160,170.8C2240,158,2320,142,2400,133.3C2480,125,2560,125,2640,125C2720,125,2800,125,2880,116.7C2960,108,3040,92,3120,83.3C3200,75,3280,75,3360,62.5C3440,50,3520,25,3600,45.8C3680,67,3760,133,3840,154.2C3920,175,4000,150,4080,133.3C4160,117,4240,108,4320,108.3C4400,108,4480,117,4560,116.7C4640,117,4720,108,4800,91.7C4880,75,4960,50,5040,66.7C5120,83,5200,142,5280,166.7C5360,192,5440,183,5520,183.3C5600,183,5680,192,5720,195.8L5760,200L5760,250L5720,250C5680,250,5600,250,5520,250C5440,250,5360,250,5280,250C5200,250,5120,250,5040,250C4960,250,4880,250,4800,250C4720,250,4640,250,4560,250C4480,250,4400,250,4320,250C4240,250,4160,250,4080,250C4000,250,3920,250,3840,250C3760,250,3680,250,3600,250C3520,250,3440,250,3360,250C3280,250,3200,250,3120,250C3040,250,2960,250,2880,250C2800,250,2720,250,2640,250C2560,250,2480,250,2400,250C2320,250,2240,250,2160,250C2080,250,2000,250,1920,250C1840,250,1760,250,1680,250C1600,250,1520,250,1440,250C1360,250,1280,250,1200,250C1120,250,1040,250,960,250C880,250,800,250,720,250C640,250,560,250,480,250C400,250,320,250,240,250C160,250,80,250,40,250L0,250Z"/><defs><linearGradient id="sw-gradient-1" x1="0" x2="0" y1="1" y2="0"><stop stop-color="rgba(255, 255, 255, 1)" offset="0%"/><stop stop-color="rgba(231.125, 241.96, 242.705, 1)" offset="100%"/></linearGradient></defs><path style="transform:translate(0, 50px); opacity:0.9" fill="url(#sw-gradient-1)" d="M0,125L40,108.3C80,92,160,58,240,41.7C320,25,400,25,480,37.5C560,50,640,75,720,87.5C800,100,880,100,960,87.5C1040,75,1120,50,1200,66.7C1280,83,1360,142,1440,145.8C1520,150,1600,100,1680,104.2C1760,108,1840,167,1920,187.5C2000,208,2080,192,2160,179.2C2240,167,2320,158,2400,154.2C2480,150,2560,150,2640,158.3C2720,167,2800,183,2880,175C2960,167,3040,133,3120,125C3200,117,3280,133,3360,137.5C3440,142,3520,133,3600,116.7C3680,100,3760,75,3840,58.3C3920,42,4000,33,4080,45.8C4160,58,4240,92,4320,112.5C4400,133,4480,142,4560,133.3C4640,125,4720,100,4800,112.5C4880,125,4960,175,5040,179.2C5120,183,5200,142,5280,141.7C5360,142,5440,183,5520,170.8C5600,158,5680,92,5720,58.3L5760,25L5760,250L5720,250C5680,250,5600,250,5520,250C5440,250,5360,250,5280,250C5200,250,5120,250,5040,250C4960,250,4880,250,4800,250C4720,250,4640,250,4560,250C4480,250,4400,250,4320,250C4240,250,4160,250,4080,250C4000,250,3920,250,3840,250C3760,250,3680,250,3600,250C3520,250,3440,250,3360,250C3280,250,3200,250,3120,250C3040,250,2960,250,2880,250C2800,250,2720,250,2640,250C2560,250,2480,250,2400,250C2320,250,2240,250,2160,250C2080,250,2000,250,1920,250C1840,250,1760,250,1680,250C1600,250,1520,250,1440,250C1360,250,1280,250,1200,250C1120,250,1040,250,960,250C880,250,800,250,720,250C640,250,560,250,480,250C400,250,320,250,240,250C160,250,80,250,40,250L0,250Z"/></svg>